<svg xmlns="http://www.w3.org/2000/svg" style="display: none;">

    <symbol id="icon-grid" viewBox="0 0 96 96" xmlns="http://www.w3.org/2000/svg">
        <path d="M95.6358 48.9729V46.5425H73.1548V25.5197H89.9245L88.4662 23.0893H73.1548V7.53488C72.3607 7.02269 71.5501 6.53636 70.7245 6.07666V23.0893H49.4586V0.486783C48.6487 0.462739 47.8382 0.462739 47.0283 0.486783V22.9678H25.7624V6.07666L23.3321 7.53488V22.9678H7.89914C7.428 23.7636 6.9822 24.5741 6.56243 25.3982H23.3321V46.5425H0.851041C0.826997 47.3524 0.826997 48.1629 0.851041 48.9729H23.3321V70.2387H6.56243L7.89914 72.6691H23.3321V88.102L25.7624 89.5602V72.6691H47.0283V95.1501H49.4586V72.6691H70.7245V89.5602L73.1548 88.102V72.6691H88.4662C89.0738 71.94 89.4384 71.0893 89.9245 70.2387H73.1548V48.9729H95.6358ZM47.0283 70.2387H25.7624V48.9729H47.0283V70.2387ZM47.0283 46.5425H25.7624V25.5197H47.0283V46.664V46.5425ZM70.7245 70.2387H49.4586V48.9729H70.7245V70.2387ZM70.7245 46.5425H49.4586V25.5197H70.7245V46.664V46.5425Z" />
    </symbol>

    <symbol id="icon-settings" viewBox="0 0 40 40" xmlns="http://www.w3.org/2000/svg">
        <path d="M20 11.885a8.115 8.115 0 100 16.231 8.115 8.115 0 000-16.231zM14.385 20a5.615 5.615 0 1111.23 0 5.615 5.615 0 01-11.23 0z"/>
        <path d="M24.49 3.357c-1.317-4.475-7.662-4.475-8.98 0l-.235.798a2.183 2.183 0 01-3.138 1.3l-.73-.4c-4.1-2.23-8.582 2.255-6.35 6.353l.398.73a2.183 2.183 0 01-1.3 3.137l-.798.235c-4.475 1.318-4.475 7.662 0 8.98l.798.235a2.182 2.182 0 011.3 3.137l-.4.73c-2.23 4.1 2.252 8.586 6.353 6.35l.73-.397a2.182 2.182 0 013.137 1.3l.235.797c1.318 4.475 7.662 4.475 8.98 0l.235-.797a2.182 2.182 0 013.137-1.3l.73.4c4.1 2.233 8.586-2.255 6.35-6.352l-.397-.73a2.182 2.182 0 011.3-3.138l.797-.235c4.475-1.317 4.475-7.662 0-8.98l-.797-.235a2.182 2.182 0 01-1.3-3.138l.4-.73c2.233-4.1-2.255-8.582-6.352-6.35l-.73.398a2.183 2.183 0 01-3.138-1.3l-.235-.798zm-6.582.708c.614-2.088 3.57-2.088 4.184 0l.236.797A4.682 4.682 0 0029.06 7.65l.728-.4c1.91-1.038 4 1.05 2.96 2.963l-.398.73a4.682 4.682 0 002.79 6.73l.795.235c2.087.614 2.087 3.57 0 4.184l-.797.236a4.683 4.683 0 00-2.788 6.732l.4.728c1.038 1.91-1.05 4-2.962 2.96l-.728-.398a4.682 4.682 0 00-6.732 2.79l-.235.795c-.616 2.087-3.57 2.087-4.186 0l-.235-.797a4.682 4.682 0 00-6.73-2.788l-.73.4c-1.91 1.038-4-1.05-2.96-2.962l.398-.728a4.683 4.683 0 00-2.788-6.735l-.797-.235c-2.088-.615-2.088-3.57 0-4.185l.797-.235a4.683 4.683 0 002.788-6.728l-.4-.73c-1.038-1.91 1.05-4 2.963-2.96l.73.398a4.682 4.682 0 006.73-2.788l.235-.797z"/>
    </symbol>

    <symbol id="icon-tag" viewBox="0 0 39 37" xmlns="http://www.w3.org/2000/svg">
        <path d="M5 3A2.5 2.5 0 017.5.5h11.465a2.5 2.5 0 011.768.732l17.5 17.5a2.5 2.5 0 010 3.535L26.768 33.733a2.5 2.5 0 01-3.535 0l-17.5-17.5A2.5 2.5 0 015 14.465V3zm8.75 10a3.75 3.75 0 100-7.5 3.75 3.75 0 000 7.5z"/>
        <path d="M3.232 17.483a2.5 2.5 0 01-.732-1.768V3A2.5 2.5 0 000 5.5v11.465a2.5 2.5 0 00.733 1.768l17.5 17.5a2.5 2.5 0 003.534 0l.108-.108L3.233 17.483z"/>
    </symbol>

    <symbol id="icon-alarm" viewBox="0 0 40 40" xmlns="http://www.w3.org/2000/svg">
        <path d="M21.25 13.75a1.25 1.25 0 00-2.5 0v8.405l-3.572 5.95a1.251 1.251 0 002.145 1.287l3.75-6.25a1.25 1.25 0 00.177-.642v-8.75z"/>
        <path d="M16.25 0a1.25 1.25 0 100 2.5h1.25v2.675A17.503 17.503 0 009.318 36.36l-1.505 1.505a1.25 1.25 0 101.767 1.77l1.865-1.865A17.425 17.425 0 0020 40a17.425 17.425 0 008.555-2.23l1.865 1.865a1.25 1.25 0 101.767-1.77l-1.502-1.505A17.503 17.503 0 0022.5 5.175V2.5h1.25a1.25 1.25 0 000-2.5h-7.5zm2.595 7.545a15 15 0 112.31 29.91 15 15 0 01-2.31-29.91zM0 8.75c0 1.883.833 3.572 2.15 4.717a20.088 20.088 0 018.817-8.817A6.25 6.25 0 000 8.75zM33.75 2.5a6.234 6.234 0 00-4.718 2.15 20.088 20.088 0 018.818 8.817A6.25 6.25 0 0033.75 2.5z"/>
    </symbol>

    <symbol id="icon-billing" viewBox="0 0 40 30" xmlns="http://www.w3.org/2000/svg">
        <path d="M0 5C0 3.67392 0.526784 2.40215 1.46447 1.46447C2.40215 0.526784 3.67392 0 5 0H35C36.3261 0 37.5979 0.526784 38.5355 1.46447C39.4732 2.40215 40 3.67392 40 5V25C40 26.3261 39.4732 27.5979 38.5355 28.5355C37.5979 29.4732 36.3261 30 35 30H5C3.67392 30 2.40215 29.4732 1.46447 28.5355C0.526784 27.5979 0 26.3261 0 25V5ZM6.25 7.5C5.91848 7.5 5.60054 7.6317 5.36612 7.86612C5.1317 8.10054 5 8.41848 5 8.75V11.25C5 11.5815 5.1317 11.8995 5.36612 12.1339C5.60054 12.3683 5.91848 12.5 6.25 12.5H11.25C11.5815 12.5 11.8995 12.3683 12.1339 12.1339C12.3683 11.8995 12.5 11.5815 12.5 11.25V8.75C12.5 8.41848 12.3683 8.10054 12.1339 7.86612C11.8995 7.6317 11.5815 7.5 11.25 7.5H6.25ZM6.25 15C5.91848 15 5.60054 15.1317 5.36612 15.3661C5.1317 15.6005 5 15.9185 5 16.25C5 16.5815 5.1317 16.8995 5.36612 17.1339C5.60054 17.3683 5.91848 17.5 6.25 17.5H18.75C19.0815 17.5 19.3995 17.3683 19.6339 17.1339C19.8683 16.8995 20 16.5815 20 16.25C20 15.9185 19.8683 15.6005 19.6339 15.3661C19.3995 15.1317 19.0815 15 18.75 15H6.25ZM6.25 20C5.91848 20 5.60054 20.1317 5.36612 20.3661C5.1317 20.6005 5 20.9185 5 21.25C5 21.5815 5.1317 21.8995 5.36612 22.1339C5.60054 22.3683 5.91848 22.5 6.25 22.5H8.75C9.08152 22.5 9.39946 22.3683 9.63388 22.1339C9.8683 21.8995 10 21.5815 10 21.25C10 20.9185 9.8683 20.6005 9.63388 20.3661C9.39946 20.1317 9.08152 20 8.75 20H6.25ZM13.75 20C13.4185 20 13.1005 20.1317 12.8661 20.3661C12.6317 20.6005 12.5 20.9185 12.5 21.25C12.5 21.5815 12.6317 21.8995 12.8661 22.1339C13.1005 22.3683 13.4185 22.5 13.75 22.5H16.25C16.5815 22.5 16.8995 22.3683 17.1339 22.1339C17.3683 21.8995 17.5 21.5815 17.5 21.25C17.5 20.9185 17.3683 20.6005 17.1339 20.3661C16.8995 20.1317 16.5815 20 16.25 20H13.75ZM21.25 20C20.9185 20 20.6005 20.1317 20.3661 20.3661C20.1317 20.6005 20 20.9185 20 21.25C20 21.5815 20.1317 21.8995 20.3661 22.1339C20.6005 22.3683 20.9185 22.5 21.25 22.5H23.75C24.0815 22.5 24.3995 22.3683 24.6339 22.1339C24.8683 21.8995 25 21.5815 25 21.25C25 20.9185 24.8683 20.6005 24.6339 20.3661C24.3995 20.1317 24.0815 20 23.75 20H21.25ZM28.75 20C28.4185 20 28.1005 20.1317 27.8661 20.3661C27.6317 20.6005 27.5 20.9185 27.5 21.25C27.5 21.5815 27.6317 21.8995 27.8661 22.1339C28.1005 22.3683 28.4185 22.5 28.75 22.5H31.25C31.5815 22.5 31.8995 22.3683 32.1339 22.1339C32.3683 21.8995 32.5 21.5815 32.5 21.25C32.5 20.9185 32.3683 20.6005 32.1339 20.3661C31.8995 20.1317 31.5815 20 31.25 20H28.75Z" />
    </symbol>

    <symbol id="icon-check" viewBox="0 0 21 18" xmlns="http://www.w3.org/2000/svg">
        <path d="M17.425 1.42497C17.7772 1.08969 18.2458 0.904334 18.7321 0.908013C19.2183 0.911692 19.6841 1.10412 20.0311 1.44469C20.3782 1.78525 20.5794 2.24733 20.5922 2.7334C20.6051 3.21948 20.4286 3.69153 20.1 4.04997L10.125 16.525C9.95351 16.7097 9.74649 16.858 9.51636 16.9609C9.28623 17.0638 9.03771 17.1192 8.78566 17.1239C8.53361 17.1286 8.2832 17.0824 8.04942 16.988C7.81564 16.8937 7.60327 16.7532 7.42503 16.575L0.810028 9.95997C0.625811 9.78831 0.478055 9.58131 0.375576 9.35131C0.273096 9.12131 0.217991 8.87303 0.213549 8.62127C0.209107 8.36952 0.255419 8.11944 0.349721 7.88597C0.444024 7.6525 0.584385 7.44042 0.762432 7.26237C0.940479 7.08432 1.15256 6.94396 1.38603 6.84966C1.6195 6.75536 1.86958 6.70905 2.12133 6.71349C2.37309 6.71793 2.62138 6.77303 2.85137 6.87551C3.08137 6.97799 3.28837 7.12575 3.46003 7.30997L8.69503 12.5425L17.3775 1.47997C17.3932 1.46072 17.4099 1.44236 17.4275 1.42497H17.425Z" />
    </symbol>

    <symbol id="icon-verified" viewBox="0 0 31 18" xmlns="http://www.w3.org/2000/svg">
        <path d="M17.425 1.42511C17.7772 1.08983 18.2458 0.904475 18.7321 0.908154C19.2183 0.911833 19.6841 1.10426 20.0311 1.44483C20.3782 1.7854 20.5794 2.24747 20.5922 2.73354C20.6051 3.21962 20.4286 3.69168 20.1 4.05011L10.125 16.5251C9.95351 16.7099 9.74649 16.8581 9.51636 16.961C9.28623 17.0639 9.03771 17.1194 8.78566 17.124C8.53361 17.1287 8.2832 17.0825 8.04942 16.9882C7.81564 16.8939 7.60327 16.7534 7.42503 16.5751L0.810027 9.96011C0.62581 9.78845 0.478055 9.58145 0.375575 9.35145C0.273095 9.12146 0.217991 8.87317 0.213549 8.62141C0.209107 8.36966 0.255418 8.11958 0.349721 7.88611C0.444023 7.65264 0.584385 7.44056 0.762432 7.26251C0.940479 7.08447 1.15256 6.9441 1.38603 6.8498C1.6195 6.7555 1.86958 6.70919 2.12133 6.71363C2.37309 6.71807 2.62137 6.77318 2.85137 6.87566C3.08137 6.97814 3.28837 7.12589 3.46003 7.31011L8.69503 12.5426L17.375 1.48011C17.3906 1.46081 17.4073 1.44244 17.425 1.42511ZM15.125 14.2751L17.425 16.5751C17.6032 16.753 17.8154 16.8932 18.049 16.9872C18.2825 17.0813 18.5326 17.1274 18.7844 17.1228C19.0361 17.1181 19.2844 17.0628 19.5143 16.9601C19.7442 16.8574 19.951 16.7095 20.1225 16.5251L30.1025 4.05011C30.2818 3.87311 30.4236 3.6618 30.5194 3.4288C30.6152 3.19579 30.663 2.94587 30.6601 2.69396C30.6572 2.44205 30.6035 2.19331 30.5023 1.9626C30.4011 1.7319 30.2544 1.52395 30.0711 1.35118C29.8877 1.17841 29.6714 1.04437 29.4351 0.957048C29.1988 0.869729 28.9473 0.830927 28.6957 0.842961C28.444 0.854994 28.1974 0.917617 27.9705 1.02709C27.7436 1.13656 27.5411 1.29063 27.375 1.48011L18.6925 12.5426L17.48 11.3276L15.1225 14.2751H15.125Z"/>
    </symbol>

    <symbol id="icon-lock" viewBox="0 0 26 40" xmlns="http://www.w3.org/2000/svg">
        <path d="M13 2.5C14.3261 2.5 15.5979 3.02678 16.5355 3.96447C17.4732 4.90215 18 6.17392 18 7.5V17.5H8V7.5C8 6.17392 8.52678 4.90215 9.46447 3.96447C10.4021 3.02678 11.6739 2.5 13 2.5ZM20.5 17.5V7.5C20.5 5.51088 19.7098 3.60322 18.3033 2.1967C16.8968 0.790176 14.9891 0 13 0C11.0109 0 9.10322 0.790176 7.6967 2.1967C6.29018 3.60322 5.5 5.51088 5.5 7.5V17.5C4.17392 17.5 2.90215 18.0268 1.96447 18.9645C1.02678 19.9021 0.5 21.1739 0.5 22.5V35C0.5 36.3261 1.02678 37.5979 1.96447 38.5355C2.90215 39.4732 4.17392 40 5.5 40H20.5C21.8261 40 23.0979 39.4732 24.0355 38.5355C24.9732 37.5979 25.5 36.3261 25.5 35V22.5C25.5 21.1739 24.9732 19.9021 24.0355 18.9645C23.0979 18.0268 21.8261 17.5 20.5 17.5Z"/>
    </symbol>

    <symbol id="icon-task" viewBox="0 0 40 38" xmlns="http://www.w3.org/2000/svg">
        <path d="M20.465 2.795a1.244 1.244 0 00-.93 0L4.615 8.791l6.01 2.414L26.01 5.023l-5.545-2.228zm8.91 3.582L13.99 12.56 20 14.974 35.385 8.79l-6.01-2.414zm8.125 4.27L21.25 17.18v19.9l16.25-6.53V10.647zM18.75 37.083V17.177L2.5 10.647v19.904l16.25 6.531zM18.608.462a3.733 3.733 0 012.784 0l17.823 7.164A1.251 1.251 0 0140 8.79v21.76a2.507 2.507 0 01-1.572 2.331l-17.963 7.22c-.299.12-.631.12-.93 0l-17.96-7.22a2.503 2.503 0 01-1.143-.923A2.52 2.52 0 010 30.551V8.79a1.26 1.26 0 01.785-1.165L18.608.46z"/>
    </symbol>

    <symbol id="icon-due" viewBox="0 0 40 40" xmlns="http://www.w3.org/2000/svg">
        <path d="M35 0H5a5 5 0 00-5 5v30a5 5 0 005 5h30a5 5 0 005-5V5a5 5 0 00-5-5zM2.5 9.643C2.5 8.46 3.62 7.5 5 7.5h30c1.38 0 2.5.96 2.5 2.143v25.715c0 1.182-1.12 2.142-2.5 2.142H5c-1.38 0-2.5-.96-2.5-2.142V9.643z"/>
        <path d="M30 17.5a2.5 2.5 0 100-5 2.5 2.5 0 000 5zM17.5 25a2.5 2.5 0 100-5 2.5 2.5 0 000 5zm5-7.5a2.5 2.5 0 100-5 2.5 2.5 0 000 5zM10 25a2.5 2.5 0 100-5 2.5 2.5 0 000 5z"/>
    </symbol>

    <symbol id="icon-stakes" viewBox="0 0 40 38" xmlns="http://www.w3.org/2000/svg">
        <path fill="#000" d="M30.34.815A3.75 3.75 0 0135 4.45V7.5h1.25A3.75 3.75 0 0140 11.25v22.5a3.75 3.75 0 01-3.75 3.75H3.75A3.75 3.75 0 010 33.75v-22.5a3.75 3.75 0 013.58-3.748L30.34.815zM13.905 7.5H32.5V4.45a1.249 1.249 0 00-1.552-1.21L13.905 7.5zM3.75 10a1.25 1.25 0 00-1.25 1.25v22.5A1.25 1.25 0 003.75 35h32.5a1.25 1.25 0 001.25-1.25v-22.5A1.25 1.25 0 0036.25 10H3.75z"/>
    </symbol>

    <symbol id="icon-peer" viewBox="0 0 40 30" xmlns="http://www.w3.org/2000/svg">
        <path d="M17.5 30S15 30 15 27.5s2.5-10 12.5-10S40 25 40 27.5 37.5 30 37.5 30h-20zm10-15a7.5 7.5 0 100-15 7.5 7.5 0 000 15z"/>
        <path d="M13.04 30a5.596 5.596 0 01-.54-2.5c0-3.387 1.7-6.875 4.84-9.3a15.78 15.78 0 00-4.84-.7C2.5 17.5 0 25 0 27.5S2.5 30 2.5 30h10.54z" />
        <path d="M11.25 15a6.25 6.25 0 100-12.5 6.25 6.25 0 000 12.5z"/>
    </symbol>

    <symbol id="icon-sync" viewBox="0 0 40 40" xmlns="http://www.w3.org/2000/svg">
        <path d="M0 5a5 5 0 015-5h20a5 5 0 015 5v5h5a5 5 0 015 5v20a5 5 0 01-5 5H15a5 5 0 01-5-5v-5H5a5 5 0 01-5-5V5zm12.5 25v5a2.5 2.5 0 002.5 2.5h20a2.5 2.5 0 002.5-2.5V15a2.5 2.5 0 00-2.5-2.5h-5V25a5 5 0 01-5 5H12.5zm15-20V5A2.5 2.5 0 0025 2.5H5A2.5 2.5 0 002.5 5v20A2.5 2.5 0 005 27.5h5V15a5 5 0 015-5h12.5z"/>
    </symbol>

    <symbol id="icon-pulse" viewBox="0 0 40 35" xmlns="http://www.w3.org/2000/svg">
        <path d="M15 0a1.25 1.25 0 011.175.825L25 25.09l3.825-10.52A1.25 1.25 0 0130 13.75h8.75a1.25 1.25 0 010 2.5h-7.875l-4.7 12.925a1.25 1.25 0 01-2.35 0L15 4.91l-3.825 10.518A1.25 1.25 0 0110 16.25H1.25a1.25 1.25 0 010-2.5h7.875l4.7-12.925A1.25 1.25 0 0115 0z" />
    </symbol>

    <symbol id="icon-stack" viewBox="0 0 40 39" xmlns="http://www.w3.org/2000/svg">
        <path d="M35.3 25.407l4.288 2.145a.746.746 0 010 1.335l-18.92 9.463a1.496 1.496 0 01-1.335 0L.412 28.887a.747.747 0 010-1.335l4.29-2.145 13.292 6.648a4.49 4.49 0 004.01 0l13.293-6.65.002.002zM19.333.157a1.495 1.495 0 011.335 0l18.92 9.46a.75.75 0 010 1.338l-18.92 9.457a1.496 1.496 0 01-1.335 0L.412 10.955a.748.748 0 010-1.338l18.92-9.46z"/>
        <path fill="#000" d="M35.3 16.44l4.288 2.145a.746.746 0 010 1.335l-18.92 9.46a1.496 1.496 0 01-1.335 0L.412 19.92a.747.747 0 010-1.335l4.29-2.145 13.292 6.647a4.49 4.49 0 004.01 0l13.293-6.647h.002z"/>
        </symbol>

    <symbol id="icon-add" viewBox="0 0 40 39" xmlns="http://www.w3.org/2000/svg">
        <path d="M35.3 25.407l4.288 2.145a.746.746 0 010 1.335l-18.92 9.463a1.496 1.496 0 01-1.335 0L.412 28.887a.747.747 0 010-1.335l4.29-2.145 13.292 6.648a4.49 4.49 0 004.01 0l13.293-6.65.002.002zM19.333.157a1.495 1.495 0 011.335 0l18.92 9.46a.75.75 0 010 1.338l-18.92 9.457a1.496 1.496 0 01-1.335 0L.412 10.955a.748.748 0 010-1.338l18.92-9.46z"/>
        <path d="M35.3 16.44l4.288 2.145a.746.746 0 010 1.335l-18.92 9.46a1.496 1.496 0 01-1.335 0L.412 19.92a.747.747 0 010-1.335l4.29-2.145 13.292 6.647a4.49 4.49 0 004.01 0l13.293-6.647h.002z"/>
    </symbol>

    <symbol id="icon-bookmarks" viewBox="0 0 30 40" xmlns="http://www.w3.org/2000/svg">
        <path d="M0 10C0 8.67392 0.526784 7.40215 1.46447 6.46447C2.40215 5.52678 3.67392 5 5 5H20C21.3261 5 22.5979 5.52678 23.5355 6.46447C24.4732 7.40215 25 8.67392 25 10V38.75C24.9999 38.9761 24.9384 39.1979 24.8222 39.3919C24.706 39.5858 24.5393 39.7446 24.34 39.8513C24.1407 39.9581 23.9161 40.0087 23.6903 39.9979C23.4644 39.9871 23.2457 39.9153 23.0575 39.79L12.5 32.7525L1.9425 39.79C1.75426 39.9153 1.53558 39.9871 1.30973 39.9979C1.08388 40.0087 0.859333 39.9581 0.659999 39.8513C0.460665 39.7446 0.29401 39.5858 0.177785 39.3919C0.0615601 39.1979 0.000116801 38.9761 0 38.75V10Z" />
        <path d="M5.67 2.5C6.10883 1.73992 6.74 1.10875 7.50007 0.669905C8.26014 0.231064 9.12234 2.22961e-05 10 0H25C26.3261 0 27.5979 0.526784 28.5355 1.46447C29.4732 2.40215 30 3.67392 30 5V33.75C29.9999 33.9761 29.9384 34.1979 29.8222 34.3919C29.706 34.5858 29.5393 34.7446 29.34 34.8513C29.1407 34.9581 28.9161 35.0087 28.6903 34.9979C28.4644 34.9871 28.2457 34.9153 28.0575 34.79L27.5 34.42V5C27.5 4.33696 27.2366 3.70107 26.7678 3.23223C26.2989 2.76339 25.663 2.5 25 2.5H5.67Z" />
    </symbol>


</svg>